<svg width="628" height="27" viewBox="0 0 628 27" fill="none" xmlns="http://www.w3.org/2000/svg">
<path d="M22.3078 27L0.481384 0.24292H627.15L606.559 27H22.3078Z" fill="#121212"/>
<path d="M291.369 15.7153V13.7153L294.037 13.7153V15.7153L291.369 15.7153ZM291.369 11.7153V9.71533L294.037 9.71533V11.7153L291.369 11.7153ZM296.705 15.7153V13.7153L299.373 13.7153V15.7153L296.705 15.7153ZM296.705 11.7153V9.71533L299.373 9.71533V11.7153L296.705 11.7153ZM302.041 15.7153V13.7153L304.71 13.7153V15.7153L302.041 15.7153ZM302.041 11.7153V9.71533L304.71 9.71533V11.7153L302.041 11.7153ZM307.378 15.7153V13.7153L310.046 13.7153V15.7153L307.378 15.7153ZM307.378 11.7153V9.71533L310.046 9.71533V11.7153L307.378 11.7153ZM312.714 15.7153V13.7153L315.382 13.7153V15.7153L312.714 15.7153ZM312.714 11.7153V9.71533L315.382 9.71533V11.7153L312.714 11.7153Z" fill="#DADADA"/>
</svg>
