<svg width="32" height="33" viewBox="0 0 32 33" fill="none" xmlns="http://www.w3.org/2000/svg">
<path fill-rule="evenodd" clip-rule="evenodd" d="M22 16.834C22 17.3863 21.5523 17.834 21 17.834L11 17.834C10.4477 17.834 10 17.3863 10 16.834C10 16.2817 10.4477 15.834 11 15.834L21 15.834C21.5523 15.834 22 16.2817 22 16.834Z" fill="#A168DF"/>
<path fill-rule="evenodd" clip-rule="evenodd" d="M16 10.834C16.5523 10.834 17 11.2817 17 11.834L17 21.834C17 22.3863 16.5523 22.834 16 22.834C15.4477 22.834 15 22.3863 15 21.834L15 11.834C15 11.2817 15.4477 10.834 16 10.834Z" fill="#A168DF"/>
<rect x="1" y="1.83398" width="30" height="30" rx="15" stroke="#A168DF" stroke-width="2"/>
</svg>
